<svg xmlns="http://www.w3.org/2000/svg" viewBox="0 0 95.41 94.94"><defs><style>.cls-1{fill:#fff;}.cls-1,.cls-2{stroke:#fff;stroke-miterlimit:10;stroke-width:2.5px;}.cls-2{fill:none;stroke-dasharray:18;}</style></defs><title>자산 2</title><g id="레이어_2" data-name="레이어 2"><g id="Layer_1" data-name="Layer 1"><path class="cls-1" d="M82.71,12.41a4.24,4.24,0,1,1-4.23-4.23A4.23,4.23,0,0,1,82.71,12.41Z"/><path class="cls-1" d="M78.29,89.45a4.24,4.24,0,1,1-4.24-4.24A4.24,4.24,0,0,1,78.29,89.45Z"/><path class="cls-1" d="M46.8,86.41a4.24,4.24,0,1,1-4.24-4.23A4.24,4.24,0,0,1,46.8,86.41Z"/><path class="cls-1" d="M94.16,59.36a4.24,4.24,0,1,1-4.23-4.23A4.23,4.23,0,0,1,94.16,59.36Z"/><path class="cls-1" d="M9.72,30.72a4.24,4.24,0,1,1-4.23-4.23A4.23,4.23,0,0,1,9.72,30.72Z"/><path class="cls-1" d="M22.12,78.81a4.24,4.24,0,1,1-4.23-4.23A4.23,4.23,0,0,1,22.12,78.81Z"/><path class="cls-1" d="M27.63,54.07a4.24,4.24,0,1,1-4.24-4.24A4.24,4.24,0,0,1,27.63,54.07Z"/><path class="cls-1" d="M45.73,5.49a4.24,4.24,0,1,1-4.24-4.24A4.23,4.23,0,0,1,45.73,5.49Z"/><path class="cls-1" d="M55.88,28.22a8,8,0,0,0-7.55,5.48,8,8,0,0,0-7.57-5.48,7.47,7.47,0,0,0-7.47,7.47,7.55,7.55,0,0,0,.05.83l0,.35a7.2,7.2,0,0,0,.53,1.8c3.88,11.82,14.32,18.22,14.32,18.22,14.09-9,15.07-20.37,15.07-20.37a7.44,7.44,0,0,0-7.42-8.3Z"/><line class="cls-1" x1="9.49" y1="32.11" x2="29.9" y2="36.36"/><line class="cls-1" x1="41.49" y1="9.72" x2="44.07" y2="24.96"/><line class="cls-1" x1="76.18" y1="15.97" x2="64.11" y2="28.22"/><line class="cls-1" x1="86.98" y1="56.32" x2="63.35" y2="45.65"/><line class="cls-1" x1="72.09" y1="85.21" x2="54.01" y2="58.3"/><line class="cls-1" x1="43.42" y1="82.18" x2="45.73" y2="60.15"/><line class="cls-1" x1="22.12" y1="80.35" x2="38.5" y2="85.21"/><line class="cls-1" x1="17.89" y1="74.58" x2="22.12" y2="58.11"/><line class="cls-2" x1="26.54" y1="56.89" x2="40.16" y2="82.78"/><line class="cls-2" x1="48.04" y1="84.17" x2="88.33" y2="61.78"/><line class="cls-1" x1="76.18" y1="85.79" x2="87.62" y2="62.91"/><line class="cls-1" x1="89.93" y1="55.13" x2="80.78" y2="15.97"/><line class="cls-2" x1="74.24" y1="12.41" x2="45.73" y2="5.49"/><line class="cls-2" x1="37.25" y1="8.18" x2="7.79" y2="27.17"/><line class="cls-1" x1="7.79" y1="34.24" x2="20.49" y2="50.98"/><line class="cls-1" x1="27.25" y1="52.31" x2="34.95" y2="48.82"/></g></g></svg>