<svg xmlns="http://www.w3.org/2000/svg" viewBox="0 0 124.53 96.02"><defs><style>.cls-1,.cls-4{fill:none;}.cls-1,.cls-2,.cls-3,.cls-4{stroke:#fff;stroke-width:2px;}.cls-1,.cls-2,.cls-5,.cls-6{stroke-linecap:round;stroke-linejoin:round;}.cls-2,.cls-3,.cls-5,.cls-6{fill:#fff;}.cls-3,.cls-4{stroke-miterlimit:10;}.cls-5{stroke:#b82026;}.cls-5,.cls-6{stroke-width:4px;}.cls-6{stroke:#b82126;}</style></defs><title>자산 3</title><g id="레이어_2" data-name="레이어 2"><g id="Layer_1" data-name="Layer 1"><path class="cls-1" d="M36.87,34.92a4.43,4.43,0,0,0-.9.1V31.76c0-6.92-4.82-12.53-10.77-12.53S14.43,24.84,14.43,31.76v3.36a3.85,3.85,0,0,0-5.08,3.65v.3a3.85,3.85,0,0,0,3.85,3.86,3.92,3.92,0,0,0,1.53-.32c1.12,5.52,5.39,9.62,10.47,9.62s9.29-4,10.46-9.5a3.7,3.7,0,0,0,1.21.2,3.86,3.86,0,0,0,3.85-3.86v-.3A3.85,3.85,0,0,0,36.87,34.92Z"/><polyline class="cls-1" points="29.75 51.83 29.75 57.4 20.32 57.4 20.32 51.83"/><path class="cls-1" d="M32.74,57.39s16.47.94,16.62,11.81,0,9.94,0,9.94l-27.64,0"/><path class="cls-1" d="M17.69,57.39S1.22,58.33,1.07,69.2s0,9.94,0,9.94l13.05,0"/><line class="cls-1" x1="10.23" y1="79.15" x2="10.23" y2="72.46"/><line class="cls-1" x1="38.19" y1="79.15" x2="38.19" y2="72.46"/><path class="cls-2" d="M38.85,28.79c0-.23,0-.46,0-.7a13.83,13.83,0,1,0-27.66,0A14.29,14.29,0,0,0,11.33,30C18,32.56,28.2,34.49,38.85,28.79Z"/><path class="cls-3" d="M21.3,38.11a1,1,0,0,1-1,1h0a1,1,0,0,1-1-1v-1.3a1,1,0,0,1,1-1h0a1,1,0,0,1,1,1Z"/><path class="cls-3" d="M31.75,38.11a1,1,0,0,1-1,1h0a1,1,0,0,1-1-1v-1.3a1,1,0,0,1,1-1h0a1,1,0,0,1,1,1Z"/><line class="cls-1" x1="17.34" y1="31.75" x2="17.34" y2="27.76"/><path class="cls-1" d="M111,34.68a3.68,3.68,0,0,0-.89.11V31.52c0-6.92-4.83-12.52-10.77-12.52S88.54,24.6,88.54,31.52v3.36a3.93,3.93,0,0,0-1.24-.2,3.85,3.85,0,0,0-3.85,3.85v.3a3.85,3.85,0,0,0,3.85,3.86,3.74,3.74,0,0,0,1.53-.32C90,47.89,94.22,52,99.31,52s9.28-4,10.45-9.51a3.7,3.7,0,0,0,1.21.2,3.86,3.86,0,0,0,3.85-3.86v-.3A3.85,3.85,0,0,0,111,34.68Z"/><polyline class="cls-1" points="103.85 51.6 103.85 57.16 94.42 57.16 94.42 51.6"/><path class="cls-1" d="M106.84,57.16s16.47.93,16.62,11.8,0,9.94,0,9.94l-27.64,0"/><path class="cls-1" d="M91.79,57.16S75.33,58.09,75.17,69s0,9.94,0,9.94l13,0"/><line class="cls-1" x1="84.33" y1="78.92" x2="84.33" y2="72.22"/><line class="cls-1" x1="112.29" y1="78.92" x2="112.29" y2="72.22"/><path class="cls-2" d="M113,28.55c0-.23,0-.46,0-.7a13.83,13.83,0,1,0-27.66,0,14.32,14.32,0,0,0,.13,1.87C92.1,32.33,102.3,34.25,113,28.55Z"/><path class="cls-3" d="M95.4,37.88a1,1,0,0,1-1,1h0a1,1,0,0,1-1-1V36.57a1,1,0,0,1,1-1h0a1,1,0,0,1,1,1Z"/><path class="cls-3" d="M105.85,37.88a1,1,0,0,1-1,1h0a1,1,0,0,1-1-1V36.57a1,1,0,0,1,1-1h0a1,1,0,0,1,1,1Z"/><line class="cls-1" x1="91.44" y1="31.52" x2="91.44" y2="27.53"/><path class="cls-1" d="M77.58,13.24l.85,9.81V39.56a16.51,16.51,0,0,1-33,0V23.05S40.22,11.78,46.85,7.6c0,0,1.32-6.48,6.12-5,0,0,18.19,2.36,26.31-1.58,0,0-3,11.4-5.47,10.78"/><path class="cls-1" d="M45.13,38.11a4.91,4.91,0,0,1-4.91-4.91h0a4.91,4.91,0,0,1,4.91-4.91l4-1.91V21.6s20.9-.73,25.5,1.36v4.6l4.06.73a4.91,4.91,0,0,1,4.91,4.91h0a4.91,4.91,0,0,1-4.91,4.91"/><line class="cls-4" x1="45.13" y1="38.11" x2="43.22" y2="38.11"/><path class="cls-3" d="M55.74,35.84a1.38,1.38,0,0,1-1.38,1.38h0A1.38,1.38,0,0,1,53,35.84V34.08a1.38,1.38,0,0,1,1.39-1.38h0a1.38,1.38,0,0,1,1.38,1.38Z"/><path class="cls-3" d="M71.31,35.84a1.38,1.38,0,0,1-1.38,1.38h0a1.38,1.38,0,0,1-1.39-1.38V34.08a1.38,1.38,0,0,1,1.39-1.38h0a1.38,1.38,0,0,1,1.38,1.38Z"/><polyline class="cls-1" points="68.86 54.87 68.86 62.35 56.17 62.35 56.17 55.16"/><path class="cls-1" d="M71.33,64c0,4-3.7,6.33-8.63,6.33S53.78,68,53.78,64"/><path class="cls-1" d="M55.48,43.74s5.85,5.44,13.8,0"/><path class="cls-1" d="M20.53,43.32s4.08,3.79,9.61,0"/><path class="cls-1" d="M94.56,43.32s4.08,3.79,9.61,0"/><path class="cls-5" d="M45.45,93.29l16,0,37.2,0s.21,1.26,0-13.37S76.29,64,76.29,64h-.84c0,5.65-5.7,10.24-12.75,10.24S50,69.68,50,64h0S27.78,65.28,27.57,79.91s0,13.37,0,13.37l17.56,0"/><line class="cls-6" x1="41.41" y1="94.02" x2="41.41" y2="85.01"/><line class="cls-6" x1="85.13" y1="94.02" x2="85.13" y2="85.01"/></g></g></svg>